{"title":"KOYELAANCHAL (2014) - 1CD - DVDRip - Hindi - x264 - MP3 - ESubs","uid":11135263,"size":739813650,"categoryP":"video","categoryS":"movies","magnet":"?xt=urn:btih:c197d71b396b499ee39e3799cee2a0e06fe71dec&amp;dn=KOYELAANCHAL+%282014%29+-+1CD+-+DVDRip+-+Hindi+-+x264+-+MP3+-+ESubs+&amp;tr=udp%3A%2F%2Ftracker.openbittorrent.com%3A80&amp;tr=udp%3A%2F%2Fopen.demonii.com%3A1337&amp;tr=udp%3A%2F%2Ftracker.coppersurfer.tk%3A6969&amp;tr=udp%3A%2F%2Fexodus.desync.com%3A6969","seeders":4,"leechers":5,"uploader":"inovai","files":5,"time":1412103043,"description":"KOYELAANCHAL (2014) - 1CD - DVDRip - Hindi - x264 - MP3 - ESubs - TEAMTNT EXCLUSIVE\n\n\nCover:\n &lt;a href=&quot;\nhttp://forum.primetimeshow.in/viewtopic.php?f=7&amp;t=742&quot; rel=&quot;nofollow&quot; target=&quot;_NEW&quot;&gt;\nhttp://forum.primetimeshow.in/viewtopic.php?f=7&amp;t=742&lt;/a&gt;\n\nGENRE: Action | Drama\n\nScreenshots:\n &lt;a href=&quot;\nhttp://m.primetimeshow.in/share-9C75_542ADDF8.html&quot; rel=&quot;nofollow&quot; target=&quot;_NEW&quot;&gt;\nhttp://m.primetimeshow.in/share-9C75_542ADDF8.html&lt;/a&gt;\n &lt;a href=&quot;\nhttp://m.primetimeshow.in/share-8640_542ADDF8.html&quot; rel=&quot;nofollow&quot; target=&quot;_NEW&quot;&gt;\nhttp://m.primetimeshow.in/share-8640_542ADDF8.html&lt;/a&gt;\n &lt;a href=&quot;\nhttp://m.primetimeshow.in/share-F749_542ADDF8.html&quot; rel=&quot;nofollow&quot; target=&quot;_NEW&quot;&gt;\nhttp://m.primetimeshow.in/share-F749_542ADDF8.html&lt;/a&gt;\n &lt;a href=&quot;\nhttp://m.primetimeshow.in/share-E03A_542ADDF8.html&quot; rel=&quot;nofollow&quot; target=&quot;_NEW&quot;&gt;\nhttp://m.primetimeshow.in/share-E03A_542ADDF8.html&lt;/a&gt;\n &lt;a href=&quot;\nhttp://m.primetimeshow.in/share-B4C8_542ADDF8.html&quot; rel=&quot;nofollow&quot; target=&quot;_NEW&quot;&gt;\nhttp://m.primetimeshow.in/share-B4C8_542ADDF8.html&lt;/a&gt;\n\nGeneral\nUnique ID : 185486273259257351955285776573570912286 (0x8B8B5B56DEB2C60296BE114CD93E901E)\nComplete name : KOYELAANCHAL (2014) - 1CD - DVDRip - Hindi - x264 - MP3 - ESubs - TEAMTNT EXCLUSIVE.mkv\nFormat : Matroska\nFormat version : Version 2\nFile size : 700 MiB\nDuration : 2h 25mn\nOverall bit rate : 674 Kbps\nEncoded date : UTC 2014-09-29 21:24:58\nWriting application : mkvmerge v7.2.0 ('On Every Street') 32bit built on Sep 13 2014 15:42:11\nWriting library : libebml v1.3.0 + libmatroska v1.4.\n\n\nVideo\nID : 1\nFormat : AVC\nFormat/Info : Advanced Video Codec\nFormat profile : &lt;a class=&quot;__cf_email__&quot; href=&quot;/cdn-cgi/l/email-protection&quot; data-cfemail=&quot;521a3b353a121e607c63&quot;&gt;[email&amp;#160;protected]&lt;/a&gt;&lt;script cf-hash='f9e31' type=&quot;text/javascript&quot;&gt;\n/* &lt;![CDATA[ */!function(){try{var t=&quot;currentScript&quot;in document?document.currentScript:function(){for(var t=document.getElementsByTagName(&quot;script&quot;),e=t.length;e--;)if(t[e].getAttribute(&quot;cf-hash&quot;))return t[e]}();if(t&amp;&amp;t.previousSibling){var e,r,n,i,c=t.previousSibling,a=c.getAttribute(&quot;data-cfemail&quot;);if(a){for(e=&quot;&quot;,r=parseInt(a.substr(0,2),16),n=2;a.length-n;n+=2)i=parseInt(a.substr(n,2),16)^r,e+=String.fromCharCode(i);e=document.createTextNode(e),c.parentNode.replaceChild(e,c)}}}catch(u){}}();/* ]]&gt; */&lt;/script&gt;\nFormat settings, CABAC : Yes\nFormat settings, ReFrames : 4 frames\nCodec ID : V_MPEG4/ISO/AVC\nDuration : 2h 25mn\nBit rate : 592 Kbps\nWidth : 640 pixels\nHeight : 272 pixels\nDisplay aspect ratio : 2.35:1\nFrame rate mode : Constant\nFrame rate : 25.000 fps\nColor space : YUV\nChroma subsampling : 4:2:0\nBit depth : 8 bits\nScan type : Progressive\nBits/(Pixel*Frame) : 0.136\nStream size : 603 MiB (86%)\nLanguage : English\nDefault : Yes\nForced : No\n\n\nAudio\nID : 2\nFormat : MPEG Audio\nFormat version : Version 1\nFormat profile : Layer 3\nMode : Joint stereo\nMode extension : MS Stereo\nCodec ID : A_MPEG/L3\nCodec ID/Hint : MP3\nDuration : 2h 25mn\nBit rate mode : Constant\nBit rate : 80.0 Kbps\nChannel(s) : 2 channels\nSampling rate : 32.0 KHz\nCompression mode : Lossy\nStream size : 83.1 MiB (12%)\nWriting library : LAME3.99r\nDefault : Yes\nForced : No\n\nThanks to TEAMTNT!!\n\nSeed n Enjoy!!","torrent":{"xt":"urn:btih:c197d71b396b499ee39e3799cee2a0e06fe71dec","amp;dn":"KOYELAANCHAL+%282014%29+-+1CD+-+DVDRip+-+Hindi+-+x264+-+MP3+-+ESubs+","amp;tr":["udp%3A%2F%2Ftracker.openbittorrent.com%3A80","udp%3A%2F%2Fopen.demonii.com%3A1337","udp%3A%2F%2Ftracker.coppersurfer.tk%3A6969","udp%3A%2F%2Fexodus.desync.com%3A6969"],"infoHash":"c197d71b396b499ee39e3799cee2a0e06fe71dec","infoHashBuffer":{"type":"Buffer","data":[193,151,215,27,57,107,73,158,227,158,55,153,206,226,160,224,111,231,29,236]},"announce":[],"urlList":[]}}